<?xml version="1.0" encoding="UTF-8" standalone="no"?>
<svg width="15px" height="17px" viewBox="0 0 15 17" version="1.1" xmlns="http://www.w3.org/2000/svg" xmlns:xlink="http://www.w3.org/1999/xlink">
    <!-- Generator: Sketch 42 (36781) - http://www.bohemiancoding.com/sketch -->
    <title>Shape</title>
    <desc>Created with Sketch.</desc>
    <defs></defs>
    <g id="ESS-SEARCH-&amp;-LOOKUP" stroke="none" stroke-width="1" fill="none" fill-rule="evenodd">
        <g id="1_1_Finch_Start-Copy-2" transform="translate(-1653.000000, -150.000000)" fill-rule="nonzero" fill="#A0A0A0">
            <path d="M1663.81818,150 L1654.54545,150 C1653.69545,150 1653,150.695455 1653,151.545455 L1653,162.363636 L1654.54545,162.363636 L1654.54545,151.545455 L1663.81818,151.545455 L1663.81818,150 Z M1666.13636,153.090909 L1657.63636,153.090909 C1656.78636,153.090909 1656.09091,153.786364 1656.09091,154.636364 L1656.09091,165.454545 C1656.09091,166.304545 1656.78636,167 1657.63636,167 L1666.13636,167 C1666.98636,167 1667.68182,166.304545 1667.68182,165.454545 L1667.68182,154.636364 C1667.68182,153.786364 1666.98636,153.090909 1666.13636,153.090909 Z M1666.13636,165.454545 L1657.63636,165.454545 L1657.63636,154.636364 L1666.13636,154.636364 L1666.13636,165.454545 Z" id="Shape"></path>
        </g>
    </g>
</svg>