<?xml version="1.0" encoding="UTF-8" standalone="no"?>
<svg width="16px" height="16px" viewBox="0 0 16 16" version="1.1" xmlns="http://www.w3.org/2000/svg" xmlns:xlink="http://www.w3.org/1999/xlink">
    <!-- Generator: Sketch 42 (36781) - http://www.bohemiancoding.com/sketch -->
    <title>Shape</title>
    <desc>Created with Sketch.</desc>
    <defs></defs>
    <g id="ESS-SEARCH-&amp;-LOOKUP" stroke="none" stroke-width="1" fill="none" fill-rule="evenodd">
        <g id="1_2_Finch_Start" transform="translate(-1677.000000, -150.000000)" fill-rule="nonzero" fill="#A0A0A0">
            <path d="M1689.44444,150 L1678.77778,150 C1677.79111,150 1677,150.8 1677,151.777778 L1677,164.222222 C1677,165.2 1677.79111,166 1678.77778,166 L1691.22222,166 C1692.2,166 1693,165.2 1693,164.222222 L1693,153.555556 L1689.44444,150 Z M1685,164.222222 C1683.52444,164.222222 1682.33333,163.031111 1682.33333,161.555556 C1682.33333,160.08 1683.52444,158.888889 1685,158.888889 C1686.47556,158.888889 1687.66667,160.08 1687.66667,161.555556 C1687.66667,163.031111 1686.47556,164.222222 1685,164.222222 Z M1687.66667,155.333333 L1678.77778,155.333333 L1678.77778,151.777778 L1687.66667,151.777778 L1687.66667,155.333333 Z" id="Shape"></path>
        </g>
    </g>
</svg>